# xmcd CD database file
#
# Track frame offsets:
#	150
#	4015
#	15754
#	29518
#	44670
#	49395
#	70959
#	84272
#	99723
#	114462
#	130814
#	145140
#	162879
#	174243
#	187894
#
# Disc length: 2711 seconds
#
# Revision: 0
# Processed by: cddbd v1.5.2PL0 Copyright (c) Steve Scherf et al.
# Submitted via: CDex 1.70beta2
#
DISCID=bc0a950f
DTITLE=Jeon Su Yeon - One Fine Day
DYEAR=2008
DGENRE=New Age
TTITLE0=반짝이는 그대에게
TTITLE1=Green Tea
TTITLE2=One Fine Day
TTITLE3=호랑이 장가가던 날
TTITLE4=꽃 반딧불이의 첫 외출
TTITLE5=너도 하늘 말라리아
TTITLE6=숲으로 간 거북이
TTITLE7=花.風.病 화풍병 (with Ocarina)
TTITLE8=바람꽃
TTITLE9=White Candle (with Cello)
TTITLE10=소풍가는 날
TTITLE11=In The Moonlight
TTITLE12=Walk and Run
TTITLE13=One Fine Day (with Guitar)
TTITLE14=花.風.病 화풍병 (Piano Solo)
EXTD=YEAR: 2008
EXTT0=
EXTT1=
EXTT2=
EXTT3=
EXTT4=
EXTT5=
EXTT6=
EXTT7=
EXTT8=
EXTT9=
EXTT10=
EXTT11=
EXTT12=
EXTT13=
EXTT14=
PLAYORDER=
